<?xml version="1.0" encoding="UTF-8" standalone="no"?>
<!-- Created with Inkscape (http://www.inkscape.org/) -->

<svg
   xmlns:dc="http://purl.org/dc/elements/1.1/"
   xmlns:cc="http://creativecommons.org/ns#"
   xmlns:rdf="http://www.w3.org/1999/02/22-rdf-syntax-ns#"
   xmlns:svg="http://www.w3.org/2000/svg"
   xmlns="http://www.w3.org/2000/svg"
   xmlns:sodipodi="http://sodipodi.sourceforge.net/DTD/sodipodi-0.dtd"
   xmlns:inkscape="http://www.inkscape.org/namespaces/inkscape"
   width="127mm"
   height="110.06667mm"
   viewBox="0 0 127 110.06667"
   version="1.1"
   id="svg8"
   inkscape:version="0.92.4 (5da689c313, 2019-01-14)"
   sodipodi:docname="electric-motor.svg">
  <defs
     id="defs2">
    <marker
       inkscape:stockid="Arrow1Lend"
       orient="auto"
       refY="0"
       refX="0"
       id="Arrow1Lend"
       style="overflow:visible"
       inkscape:isstock="true">
      <path
         id="path840"
         d="M 0,0 5,-5 -12.5,0 5,5 Z"
         style="fill-rule:evenodd;stroke:#000000;stroke-width:1.00000003pt"
         transform="matrix(-0.8,0,0,-0.8,-10,0)"
         inkscape:connector-curvature="0" />
    </marker>
    <marker
       inkscape:stockid="Arrow1Lstart"
       orient="auto"
       refY="0"
       refX="0"
       id="Arrow1Lstart"
       style="overflow:visible"
       inkscape:isstock="true">
      <path
         id="path837"
         d="M 0,0 5,-5 -12.5,0 5,5 Z"
         style="fill-rule:evenodd;stroke:#000000;stroke-width:1.00000003pt"
         transform="matrix(0.8,0,0,0.8,10,0)"
         inkscape:connector-curvature="0" />
    </marker>
  </defs>
  <sodipodi:namedview
     id="base"
     pagecolor="#ffffff"
     bordercolor="#666666"
     borderopacity="1.0"
     inkscape:pageopacity="0.0"
     inkscape:pageshadow="2"
     inkscape:zoom="0.49497475"
     inkscape:cx="-79.208202"
     inkscape:cy="189.81726"
     inkscape:document-units="mm"
     inkscape:current-layer="layer1"
     showgrid="false"
     inkscape:window-width="1920"
     inkscape:window-height="1001"
     inkscape:window-x="2391"
     inkscape:window-y="-9"
     inkscape:window-maximized="1" />
  <metadata
     id="metadata5">
    <rdf:RDF>
      <cc:Work
         rdf:about="">
        <dc:format>image/svg+xml</dc:format>
        <dc:type
           rdf:resource="http://purl.org/dc/dcmitype/StillImage" />
        <dc:title></dc:title>
      </cc:Work>
    </rdf:RDF>
  </metadata>
  <g
     inkscape:label="Layer 1"
     inkscape:groupmode="layer"
     id="layer1"
     transform="translate(-35.529761,-86.996428)">
    <g
       data-name="Electric Motor-electronics"
       id="Electric_Motor-electronics"
       transform="matrix(2.1166667,0,0,2.1166667,31.296428,80.646428)"
       style="fill:#c3cbdd;fill-opacity:1">
      <path
         id="path815"
         d="M 57,18 H 35 v -2 h 3 a 1,1 0 0 0 1,-1 V 7 A 1,1 0 0 0 38,6 H 36 V 4 A 1,1 0 0 0 35,3 H 31 A 1,1 0 0 0 30,4 V 6 H 28 V 4 A 1,1 0 0 0 27,3 h -4 a 1,1 0 0 0 -1,1 v 2 h -2 a 1,1 0 0 0 -1,1 v 8 a 1,1 0 0 0 1,1 h 3 v 2 H 13 a 3,3 0 0 0 -3,3 v 7 H 3 a 1,1 0 0 0 -1,1 v 6 a 1,1 0 0 0 1,1 h 7 v 8 a 3,3 0 0 0 3,3 h 8 v 2 h -4 a 1,1 0 0 0 -1,1 v 4 a 1,1 0 0 0 1,1 h 34 a 1,1 0 0 0 1,-1 v -4 a 1,1 0 0 0 -1,-1 h -4 v -2 h 10 a 5.006,5.006 0 0 0 5,-5 V 23 A 5.006,5.006 0 0 0 57,18 Z M 50,45 H 19 V 20 H 50 Z M 32,5 h 2 v 1 h -2 z m -8,0 h 2 v 1 h -2 z m -3,3 h 16 v 6 H 21 Z m 4,8 h 8 v 2 H 25 Z M 4,34 v -4 h 6 v 4 z M 16,45 H 13 A 1,1 0 0 1 12,44 V 21 a 1,1 0 0 1 1,-1 h 4 v 25 z m 34,8 H 18 V 51 H 50 Z M 45,49 H 23 v -2 h 22 z m 15,-7 a 3,3 0 0 1 -3,3 H 52 V 20 h 5 a 3,3 0 0 1 3,3 z"
         inkscape:connector-curvature="0"
         style="fill:#c3cbdd;fill-opacity:1" />
      <path
         id="path817"
         d="m 54,23 h 4 v 2 h -4 z"
         inkscape:connector-curvature="0"
         style="fill:#c3cbdd;fill-opacity:1" />
      <path
         id="path819"
         d="m 54,27 h 4 v 2 h -4 z"
         inkscape:connector-curvature="0"
         style="fill:#c3cbdd;fill-opacity:1" />
      <path
         id="path821"
         d="m 22,22 v 20 a 1,1 0 0 0 1,1 h 23 a 1,1 0 0 0 1,-1 V 22 A 1,1 0 0 0 46,21 H 23 a 1,1 0 0 0 -1,1 z m 2,7 h 21 v 6 H 24 Z m 0,8 h 21 v 1 H 24 Z M 45,27 H 24 V 26 H 45 Z M 24,41 v -1 h 21 v 1 z M 45,23 v 1 H 24 v -1 z"
         inkscape:connector-curvature="0"
         style="fill:#c3cbdd;fill-opacity:1" />
    </g>
  </g>
</svg>
